<svg xmlns="http://www.w3.org/2000/svg" width="305.743" height="56.695" viewBox="0 0 305.74302 56.695"><path fill="#d5e835" d="M50.727 50.726H11.934V31.333H5.97v25.362h50.723V5.95H31.33v5.966h19.397"/><path d="M5.97 27.6h5.964v-5.966h3.73V27.6h5.967v-5.966h5.995v-5.968H21.63v-3.73h5.995V5.968H21.63V0h-5.965v5.97h-3.73V0H5.968v5.97H0v5.965h5.97v3.73H0v5.97h5.97V27.6zm5.964-15.665h3.73v3.73h-3.73v-3.73z" fill="#5daac7"/><g fill="#fff"><path d="M72.167 24.066V19.23h4.23v-7.002h5.944v7h6.047v4.838H82.34v11.236c0 1.074.194 1.965.583 2.67.385.703 1.25 1.057 2.595 1.057.402 0 .837-.042 1.308-.126.47-.084.89-.21 1.26-.38l.2 4.74c-.536.198-1.177.358-1.914.476-.737.118-1.444.176-2.115.176-1.613 0-2.922-.225-3.93-.68-1.007-.453-1.806-1.076-2.393-1.863-.588-.79-.993-1.695-1.21-2.72-.216-1.024-.327-2.124-.327-3.302V24.067h-4.23zM115.22 31.622v.808c0 .27-.018.537-.054.807H96.78c.067.873.292 1.67.68 2.39.385.726.898 1.347 1.538 1.868.636.52 1.358.932 2.166 1.234.805.3 1.644.45 2.52.45 1.51 0 2.786-.275 3.827-.83 1.04-.553 1.897-1.318 2.57-2.29l4.028 3.224c-2.382 3.223-5.842 4.836-10.377 4.836-1.878 0-3.61-.297-5.188-.883-1.578-.588-2.946-1.416-4.104-2.494-1.16-1.072-2.066-2.393-2.72-3.953-.654-1.564-.98-3.336-.98-5.317 0-1.945.326-3.717.98-5.314.653-1.597 1.552-2.954 2.694-4.08 1.143-1.125 2.493-2 4.056-2.62 1.562-.623 3.25-.933 5.063-.933 1.68 0 3.233.277 4.658.83 1.43.556 2.664 1.378 3.705 2.47 1.04 1.092 1.855 2.454 2.443 4.08.59 1.628.884 3.535.884 5.715zm-6.045-2.72c0-.772-.108-1.51-.326-2.216-.223-.706-.567-1.325-1.035-1.863-.472-.537-1.067-.967-1.79-1.284-.72-.32-1.57-.48-2.544-.48-1.812 0-3.35.548-4.607 1.638-1.258 1.093-1.96 2.494-2.09 4.204h12.392zM125.04 30.564L116.33 19.23h7.255l5.237 7.508 5.39-7.51h6.953l-8.665 11.336 9.877 12.848h-7.358l-6.295-8.814-6.35 8.814h-7.15l9.82-12.848zM143 24.066V19.23h4.234v-7.002h5.943v7h6.047v4.838h-6.047v11.236c0 1.074.19 1.965.58 2.67.383.703 1.25 1.057 2.594 1.057.404 0 .842-.042 1.312-.126.47-.084.89-.21 1.257-.38l.204 4.74c-.54.198-1.177.358-1.915.476-.742.117-1.446.176-2.116.176-1.613 0-2.924-.225-3.932-.68-1.008-.453-1.807-1.076-2.394-1.863-.587-.79-.99-1.695-1.21-2.72-.218-1.024-.324-2.124-.324-3.302V24.067H143zM161.57 31.22c0-1.915.345-3.653 1.033-5.213.688-1.562 1.62-2.896 2.796-4.006 1.176-1.106 2.57-1.964 4.18-2.57 1.613-.604 3.325-.905 5.14-.905 1.813 0 3.527.302 5.138.905 1.614.606 3.01 1.464 4.183 2.57 1.176 1.11 2.107 2.444 2.796 4.007.69 1.56 1.034 3.298 1.034 5.212 0 1.916-.345 3.66-1.034 5.24-.688 1.578-1.62 2.93-2.795 4.055-1.173 1.125-2.567 2.008-4.182 2.645-1.61.64-3.324.96-5.138.96s-3.526-.32-5.14-.96c-1.61-.637-3.004-1.52-4.18-2.645-1.177-1.125-2.11-2.477-2.797-4.055-.688-1.58-1.032-3.324-1.032-5.24zm6.148 0c0 .94.142 1.883.427 2.822.285.94.713 1.78 1.285 2.518.57.742 1.294 1.344 2.168 1.814.872.47 1.914.707 3.122.707s2.25-.237 3.123-.706c.874-.47 1.595-1.072 2.165-1.814.573-.738 1-1.578 1.286-2.518.284-.94.43-1.883.43-2.823s-.146-1.872-.43-2.794c-.286-.926-.713-1.758-1.286-2.494-.57-.738-1.29-1.334-2.165-1.79-.872-.452-1.915-.68-3.123-.68-1.208 0-2.25.228-3.122.68-.874.456-1.597 1.052-2.168 1.79-.572.736-1 1.568-1.285 2.494-.286.922-.427 1.854-.427 2.793zM216.783 19.23v22.016c0 2.184-.27 4.158-.807 5.92-.536 1.762-1.37 3.26-2.493 4.484-1.126 1.225-2.543 2.174-4.257 2.846-1.713.674-3.746 1.008-6.096 1.008-.974 0-2.005-.086-3.1-.252-1.09-.17-2.166-.42-3.225-.756-1.056-.334-2.072-.756-3.047-1.258-.974-.504-1.848-1.078-2.62-1.715l3.476-4.684c1.175 1.106 2.503 1.954 3.98 2.542 1.48.588 2.975.88 4.486.88 1.443 0 2.66-.21 3.65-.63.99-.422 1.78-1.002 2.37-1.746.586-.74 1.006-1.617 1.258-2.63.254-1.01.38-2.122.38-3.335v-1.77h-.103c-.875 1.19-1.99 2.095-3.352 2.724-1.36.627-2.878.94-4.557.94-1.815 0-3.462-.335-4.938-1.007-1.478-.67-2.73-1.578-3.754-2.72-1.025-1.144-1.823-2.478-2.395-4.007-.57-1.527-.856-3.148-.856-4.862 0-1.746.277-3.39.833-4.935.554-1.545 1.34-2.89 2.365-4.032 1.024-1.14 2.27-2.046 3.73-2.72 1.46-.67 3.1-1.007 4.912-1.007 1.713 0 3.307.352 4.783 1.06 1.48.703 2.654 1.797 3.53 3.272h.1v-3.628h5.746zm-12.898 4.232c-1.108 0-2.09.2-2.945.604-.858.4-1.582.946-2.166 1.63-.59.686-1.042 1.5-1.36 2.437-.32.937-.48 1.942-.48 3.01 0 .973.16 1.91.48 2.812.318.904.77 1.72 1.36 2.438.584.72 1.308 1.3 2.166 1.732.855.438 1.82.652 2.896.652 1.108 0 2.107-.207 2.997-.627.89-.418 1.644-.98 2.268-1.682.62-.703 1.1-1.514 1.437-2.436.335-.92.504-1.883.504-2.89 0-1.036-.168-2.024-.503-2.962-.336-.937-.815-1.755-1.436-2.46-.623-.7-1.37-1.256-2.242-1.655-.872-.4-1.864-.603-2.973-.603zM221.32 19.23h5.79v4.028h.103c.67-1.41 1.61-2.55 2.818-3.424 1.212-.87 2.623-1.31 4.235-1.31.236 0 .485.01.755.024.27.02.505.06.708.126v5.542c-.404-.1-.75-.166-1.036-.2-.285-.034-.562-.053-.83-.053-1.38 0-2.485.253-3.324.756-.843.504-1.495 1.108-1.967 1.812-.47.706-.788 1.43-.955 2.168-.168.74-.252 1.33-.252 1.763V43.41h-6.044V19.23zM253.726 40.34h-.152c-.602 1.073-1.578 1.956-2.92 2.644-1.344.688-2.87 1.03-4.585 1.03-.975 0-1.99-.122-3.048-.374-1.058-.254-2.033-.674-2.924-1.262-.89-.586-1.63-1.357-2.216-2.316-.588-.957-.88-2.14-.88-3.55 0-1.815.51-3.26 1.536-4.335 1.023-1.074 2.342-1.897 3.95-2.47 1.616-.57 3.403-.945 5.368-1.133 1.965-.185 3.887-.275 5.77-.275v-.606c0-1.513-.55-2.628-1.64-3.352-1.09-.72-2.39-1.084-3.902-1.084-1.276 0-2.504.27-3.677.808-1.18.54-2.15 1.193-2.924 1.966l-3.123-3.68c1.378-1.274 2.963-2.233 4.76-2.87 1.796-.638 3.62-.957 5.47-.957 2.147 0 3.92.302 5.313.905 1.393.606 2.492 1.395 3.3 2.37.806.973 1.368 2.064 1.687 3.273.317 1.21.48 2.42.48 3.628v14.71h-5.645v-3.07zm-.1-7.962h-1.36c-.975 0-1.997.043-3.073.127-1.073.084-2.065.27-2.97.555-.91.285-1.663.688-2.27 1.21-.605.52-.905 1.233-.905 2.14 0 .572.126 1.05.378 1.436.25.385.578.697.982.932.402.232.855.402 1.36.506.503.1 1.007.148 1.51.148 2.083 0 3.66-.55 4.735-1.662 1.076-1.107 1.613-2.62 1.613-4.533v-.86zM266.597 24.066h-4.584V19.23h4.584v-3.577c0-1.444.158-2.826.48-4.156.317-1.325.854-2.493 1.61-3.502.757-1.008 1.756-1.805 3-2.393 1.24-.586 2.802-.882 4.684-.882.672 0 1.236.024 1.69.076.45.05.914.146 1.385.275l-.404 5.14c-.336-.1-.694-.183-1.08-.25-.39-.07-.8-.1-1.237-.1-.874 0-1.578.167-2.115.503-.538.334-.95.773-1.232 1.308-.288.542-.48 1.128-.58 1.766-.102.64-.152 1.26-.152 1.863v3.93h5.59v4.836h-5.59v19.346H266.6V24.066zM279.445 31.22c0-1.915.345-3.653 1.03-5.213.69-1.562 1.62-2.896 2.798-4.006 1.176-1.106 2.57-1.964 4.184-2.57 1.61-.604 3.32-.905 5.136-.905 1.813 0 3.53.302 5.14.905 1.613.606 3.003 1.464 4.183 2.57 1.175 1.11 2.104 2.444 2.794 4.007.69 1.56 1.033 3.298 1.033 5.212 0 1.916-.344 3.66-1.033 5.24-.69 1.578-1.62 2.93-2.794 4.055-1.18 1.125-2.57 2.008-4.184 2.645-1.61.64-3.325.96-5.14.96-1.814 0-3.524-.32-5.135-.96-1.614-.637-3.008-1.52-4.184-2.645-1.177-1.125-2.108-2.477-2.797-4.055-.686-1.58-1.03-3.324-1.03-5.24zm6.146 0c0 .94.144 1.883.43 2.822.286.94.714 1.78 1.285 2.518.57.742 1.292 1.344 2.167 1.814.87.47 1.913.707 3.12.707 1.21 0 2.25-.237 3.125-.706.872-.47 1.597-1.072 2.167-1.814.57-.738 1-1.578 1.286-2.518.283-.94.428-1.883.428-2.823s-.145-1.872-.428-2.794c-.287-.926-.715-1.758-1.286-2.494-.57-.738-1.295-1.334-2.167-1.79-.874-.452-1.915-.68-3.124-.68-1.208 0-2.25.228-3.12.68-.876.456-1.598 1.052-2.168 1.79-.57.736-1 1.568-1.284 2.494-.287.922-.43 1.854-.43 2.793z"/></g></svg>